<svg xmlns="http://www.w3.org/2000/svg" viewBox="7301 805 2206 792" fill="none" role="img" aria-label="양조장"><title>양조장</title><path d="M7438.09 847.062V842.992C7438.09 823.996 7447.59 805 7476.08 805H7514.07C7542.57 805 7552.06 823.996 7552.06 842.992V847.062C7636.19 867.415 7689.11 933.901 7689.11 1023.45C7689.11 1133.36 7611.77 1206.63 7495.08 1206.63C7378.39 1206.63 7301.05 1132 7301.05 1023.45C7301.05 932.544 7353.96 867.415 7438.09 847.062ZM7664.68 1241.91C7691.82 1241.91 7702.67 1260.9 7702.67 1279.9C7862.78 1288.04 7967.26 1336.89 7967.26 1437.29C7967.26 1549.91 7837 1597.4 7645.69 1597.4C7454.37 1597.4 7324.11 1549.91 7324.11 1437.29C7324.11 1336.89 7428.59 1288.04 7588.7 1279.9C7588.7 1260.9 7598.2 1241.91 7626.69 1241.91H7664.68ZM7495.08 1122.5C7561.56 1122.5 7595.48 1073.66 7595.48 1023.45C7595.48 973.25 7561.56 924.403 7495.08 924.403C7428.59 924.403 7394.67 973.25 7394.67 1023.45C7394.67 1073.66 7428.59 1122.5 7495.08 1122.5ZM7645.69 1507.85C7777.3 1507.85 7862.78 1487.5 7862.78 1437.29C7862.78 1387.09 7777.3 1366.74 7645.69 1366.74C7514.07 1366.74 7428.59 1387.09 7428.59 1437.29C7428.59 1487.5 7514.07 1507.85 7645.69 1507.85ZM7828.86 851.133C7828.86 822.639 7853.29 813.141 7881.78 813.141C7910.27 813.141 7934.7 822.639 7934.7 851.133V885.054H7997.11C8025.61 885.054 8035.1 904.05 8035.1 932.544C8035.1 961.038 8025.61 980.034 7997.11 980.034H7934.7V1046.52H7997.11C8025.61 1046.52 8035.1 1065.52 8035.1 1094.01C8035.1 1122.5 8025.61 1141.5 7997.11 1141.5H7934.7V1202.56C7934.7 1231.05 7910.27 1240.55 7881.78 1240.55C7853.29 1240.55 7828.86 1231.05 7828.86 1202.56V851.133Z" fill="currentColor"/><path d="M8336.37 1431.76V1214.67C8336.37 1186.17 8359.43 1176.68 8387.93 1176.68C8416.42 1176.68 8440.85 1186.17 8440.85 1214.67V1431.76H8683.72C8712.22 1431.76 8721.71 1450.76 8721.71 1479.25C8721.71 1507.75 8712.22 1526.74 8683.72 1526.74H8094.85C8066.36 1526.74 8056.86 1507.75 8056.86 1479.25C8056.86 1450.76 8066.36 1431.76 8094.85 1431.76H8337.73H8336.37ZM8389.29 994.858L8174.9 1266.23C8159.98 1285.22 8131.48 1289.29 8107.06 1271.66C8081.28 1254.02 8085.35 1225.52 8098.92 1209.24L8313.3 937.87H8123.34C8094.85 937.87 8085.35 918.874 8085.35 890.38C8085.35 861.886 8094.85 842.891 8123.34 842.891H8655.23C8683.72 842.891 8693.22 861.886 8693.22 890.38C8693.22 918.874 8683.72 937.87 8655.23 937.87H8463.91L8679.65 1209.24C8693.22 1226.88 8697.29 1254.02 8671.51 1271.66C8647.09 1289.29 8618.59 1285.22 8603.67 1266.23L8389.29 994.858Z" fill="currentColor"/><path d="M8864.15 1172.81C8853.3 1194.52 8822.09 1206.73 8797.67 1193.16C8774.6 1180.95 8767.82 1153.81 8780.03 1130.75L8877.72 924.504H8811.24C8782.74 924.504 8773.24 905.508 8773.24 877.014C8773.24 848.52 8782.74 829.524 8811.24 829.524H9176.23C9204.72 829.524 9214.22 848.52 9214.22 877.014C9214.22 905.508 9204.72 924.504 9176.23 924.504H9108.39L9204.72 1126.67C9215.58 1151.1 9210.15 1176.88 9187.08 1189.09C9162.66 1202.66 9131.45 1190.45 9120.6 1168.74L8993.05 928.575L8864.15 1172.81ZM9136.88 1242.01C9164.02 1242.01 9174.87 1261 9174.87 1280C9334.98 1288.14 9439.46 1336.99 9439.46 1437.39C9439.46 1550.01 9309.2 1597.5 9117.88 1597.5C8926.57 1597.5 8796.31 1550.01 8796.31 1437.39C8796.31 1336.99 8900.79 1288.14 9060.9 1280C9060.9 1261 9070.39 1242.01 9098.89 1242.01H9136.88ZM9117.88 1507.95C9249.5 1507.95 9334.98 1487.6 9334.98 1437.39C9334.98 1387.19 9249.5 1366.84 9117.88 1366.84C8986.27 1366.84 8900.79 1387.19 8900.79 1437.39C8900.79 1487.6 8986.27 1507.95 9117.88 1507.95ZM9301.06 851.234C9301.06 822.74 9325.48 813.242 9353.98 813.242C9382.47 813.242 9406.89 822.74 9406.89 851.234V965.21H9469.31C9497.8 965.21 9507.3 984.206 9507.3 1012.7C9507.3 1041.19 9497.8 1060.19 9469.31 1060.19H9406.89V1202.66C9406.89 1231.15 9382.47 1240.65 9353.98 1240.65C9325.48 1240.65 9301.06 1231.15 9301.06 1202.66V851.234Z" fill="currentColor"/></svg>
